<svg xmlns="http://www.w3.org/2000/svg" viewBox="0 0 1519.20233 900.95508"><g id="Layer_2" data-name="Layer 2"><g id="Layer_1-2" data-name="Layer 1"><rect x="40.5" y="642.45508" width="222" height="110" rx="19.50967" style="fill:none;stroke:#fffded;stroke-miterlimit:10;stroke-width:3px"/><text transform="translate(100.31152 712.85303)" style="font-size:59.660789489746094px;fill:#fffded;font-family:IBMPlexSansArabic-Bold, IBM Plex Sans Arabic;font-weight:700">سج</text><polygon points="1197.016 48.955 1275.505 48.955 1519.202 292.652 1519.202 371.141 1197.016 48.955" style="fill:#3a2a59"/><polygon points="1519.202 51.529 1516.628 48.955 1519.202 48.955 1519.202 51.529" style="fill:#3a2a59"/><polygon points="1355.408 48.955 1436.725 48.955 1519.202 131.432 1519.202 212.749 1355.408 48.955" style="fill:#3a2a59"/><polygon points="1128.202 139.948 1128.202 60.044 1519.202 451.044 1519.202 530.948 1128.202 139.948" style="fill:#3a2a59"/><polygon points="1128.202 777.758 1128.202 699.269 1329.888 900.955 1251.4 900.955 1128.202 777.758" style="fill:#3a2a59"/><polygon points="1128.202 298.339 1128.202 219.851 1519.202 610.851 1519.202 689.339 1128.202 298.339" style="fill:#3a2a59"/><polygon points="1128.202 857.661 1171.497 900.955 1128.202 900.955 1128.202 857.661" style="fill:#3a2a59"/><polygon points="1128.202 619.366 1128.202 539.463 1489.695 900.955 1409.792 900.955 1128.202 619.366" style="fill:#3a2a59"/><polygon points="1128.202 459.56 1128.202 378.242 1519.202 769.242 1519.202 850.56 1128.202 459.56" style="fill:#3a2a59"/><path d="M1225.20233,256.94531V185.96484a21.03338,21.03338,0,0,1,21.00977-21.00976h182.98047a21.03338,21.03338,0,0,1,21.00976,21.00976v70.98047a21.03338,21.03338,0,0,1-21.00976,21.00977H1246.2121A21.03339,21.03339,0,0,1,1225.20233,256.94531Zm21.00977-88.99023a18.0301,18.0301,0,0,0-18.00977,18.00976v70.98047a18.0301,18.0301,0,0,0,18.00977,18.00977h182.98047a18.0301,18.0301,0,0,0,18.00976-18.00977V185.96484a18.0301,18.0301,0,0,0-18.00976-18.00976Z" style="fill:#fffded"/><path d="M1284.51483,242.22266h2.38672q5.42724,0,7.96436-2.207,2.53491-2.209,2.47607-7.33887a24.72912,24.72912,0,0,0-.1792-2.89356q-.17871-1.5205-.47705-3.25195l-1.25293-7.93457,6.50293-1.01465.895,5.54883q.4768,2.86377.7456,5.28027a37.38047,37.38047,0,0,1,.26856,3.96778,26.10641,26.10641,0,0,1-1.07422,7.75586,16.30292,16.30292,0,0,1-3.22168,5.93554,14.04459,14.04459,0,0,1-5.30957,3.78907,18.8793,18.8793,0,0,1-7.27832,1.3125h-2.44629Zm12.76758-29.41309a3.48829,3.48829,0,0,1-2.53613-.9541,5.19549,5.19549,0,0,1,0-6.08594,3.493,3.493,0,0,1,2.53613-.95508h1.19287a3.49422,3.49422,0,0,1,2.53565.95508,5.19553,5.19553,0,0,1,0,6.08594,3.48951,3.48951,0,0,1-2.53565.9541Z" style="fill:#fffded"/><path d="M1321.38495,236.85352q-6.02637,0-8.94922-2.86426-2.92383-2.86377-2.92334-9.30762V192.7041h7.15967v30.78418q0,2.68653,1.07324,3.55078a6.01743,6.01743,0,0,0,3.69922.86524h1.79v7.1582l-1.79,1.791Z" style="fill:#fffded"/><path d="M1333.31659,252.96094q-1.3125-1.84863-2.29688-3.33985-.98437-1.49267-1.67041-2.74511a12.12966,12.12966,0,0,1-1.01416-2.35645,8.00581,8.00581,0,0,1-.32812-2.29687,9.74185,9.74185,0,0,1,.95459-4.415,15.80018,15.80018,0,0,1,1.78955-2.92285l-.35791-.29883a6.14126,6.14126,0,0,1-1.25244.95508,7.7,7.7,0,0,1-1.76026.71484,14.42619,14.42619,0,0,1-2.47607.44824,34.03529,34.03529,0,0,1-3.46.14942v-7.16016l1.78955-1.78906h1.19287a10.3463,10.3463,0,0,0,4.2959-.68653,4.90162,4.90162,0,0,0,2.26709-2.416l2.32666-4.833,5.90625,2.86328-2.38623,4.89258q-.71557,1.49268-1.19287,2.53613a17.3229,17.3229,0,0,0-.7461,1.87891,10.76012,10.76012,0,0,0-.38769,1.58105,10.37244,10.37244,0,0,0-.11914,1.64063,9.84561,9.84561,0,0,0,1.07373,4.17578,58.29417,58.29417,0,0,0,2.8042,5.13086l5.19043-12.16992a16.35977,16.35977,0,0,1,1.07373-2.207,6.204,6.204,0,0,1,1.1333-1.43262,3.29667,3.29667,0,0,1,1.37256-.74512,6.88234,6.88234,0,0,1,1.78955-.209h4.95215v7.1582l-1.79,1.791h-3.99707l-6.62207,16.10742Z" style="fill:#fffded"/><path d="M1351.99042,229.69336l1.78955-1.78906h4.1167q3.33984,0,5.99609-.08985a44.082,44.082,0,0,0,5.041-.44726,30.35812,30.35812,0,0,0,4.65332-1.07422,35.22963,35.22963,0,0,0,4.833-1.96875l2.207-1.07422v-.29785l-9.5459-2.02832-9.0083-2.207v4.47461h-6.86084v-4.59473q0-4.23486,1.81933-6.2041,1.81934-1.96875,5.57813-1.96875a8.5729,8.5729,0,0,1,.98437.05859c.33789.041.73584.09961,1.19336.17969q.68555.12012,1.64063.35742.95361.24024,2.38672.59766l11.51464,2.98242a37.69185,37.69185,0,0,0,5.13086,1.01367,41.81387,41.81387,0,0,0,5.42871.3584h1.19336v8.94922h-4.65332l-5.60839,3.81836a64.02827,64.02827,0,0,1-7.06983,4.26562,38.37244,38.37244,0,0,1-5.936,2.44629,28.10789,28.10789,0,0,1-5.4292,1.13281,53.76986,53.76986,0,0,1-5.48877.26954h-5.90625Zm20.583,19.98633a3.49234,3.49234,0,0,1-2.53614-.9541,5.194,5.194,0,0,1,0-6.085,3.489,3.489,0,0,1,2.53614-.95508h1.19287a3.49016,3.49016,0,0,1,2.53564.95508,5.194,5.194,0,0,1,0,6.085,3.49352,3.49352,0,0,1-2.53564.9541Z" style="fill:#fffded"/><path d="M646.20233,256.94531V185.96484a21.03338,21.03338,0,0,1,21.00977-21.00976H850.19257a21.03338,21.03338,0,0,1,21.00976,21.00976v70.98047a21.03338,21.03338,0,0,1-21.00976,21.00977H667.2121A21.03339,21.03339,0,0,1,646.20233,256.94531Zm21.00977-88.99023a18.0301,18.0301,0,0,0-18.00977,18.00976v70.98047a18.0301,18.0301,0,0,0,18.00977,18.00977H850.19257a18.0301,18.0301,0,0,0,18.00976-18.00977V185.96484a18.0301,18.0301,0,0,0-18.00976-18.00976Z" style="fill:#fffded"/><path d="M732.66083,236.85352a15.16954,15.16954,0,0,1-3.96729-.50782,9.44191,9.44191,0,0,1-3.5498-1.8789q-3.81885,2.38623-10.8584,2.38672h-25.833V227.9043h5.07129l1.49121-2.56641V192.7041H702.174v15.27246l-.71582,6.98047.47754.23926a18.92686,18.92686,0,0,1,6.50293-4.56348,20.153,20.153,0,0,1,7.63672-1.40234q7.03857,0,10.55957,3.84765,3.52,3.84814,3.52,10.709a16.425,16.425,0,0,1-.41748,3.9375,24.55859,24.55859,0,0,0,2.92334.17969h1.78955v7.1582Zm-18.37549-8.94922a44.18056,44.18056,0,0,0,4.74316-.209,10.65472,10.65472,0,0,0,3.04248-.71679,3.22041,3.22041,0,0,0,1.64063-1.40137,4.93939,4.93939,0,0,0,.47705-2.32715,4.46942,4.46942,0,0,0-1.66992-3.81836q-1.67139-1.25244-5.54883-1.25195h-1.79a46.49159,46.49159,0,0,0-4.71289.209,13.98036,13.98036,0,0,0-3.57959.80469,9.56322,9.56322,0,0,0-2.8042,1.66992,13.18257,13.18257,0,0,0-2.38672,2.80469L699.131,227.5459l.17969.3584Z" style="fill:#fffded"/><path d="M732.66034,229.69336l1.79-1.78906h1.79q4.77246,0,4.77246-4.17676v-8.53125h6.563v8.53125q0,4.17627,4.17627,4.17676h2.38623v7.1582l-1.78955,1.791q-4.77393,0-7.249-1.93946a9.87966,9.87966,0,0,1-3.311-6.11523h-.35791a11.35674,11.35674,0,0,1-2.86377,6.11523,8.22762,8.22762,0,0,1-5.90674,1.93946Zm6.32422,19.98633a3.492,3.492,0,0,1-2.53565-.9541,5.194,5.194,0,0,1,0-6.085,3.48864,3.48864,0,0,1,2.53565-.95507h1.19336a3.489,3.489,0,0,1,2.53515.95507,5.194,5.194,0,0,1,0,6.085,3.49235,3.49235,0,0,1-2.53515.9541Zm9.42676,0a3.49234,3.49234,0,0,1-2.53614-.9541,5.194,5.194,0,0,1,0-6.085,3.489,3.489,0,0,1,2.53614-.95507h1.19287a3.4902,3.4902,0,0,1,2.53564.95507,5.194,5.194,0,0,1,0,6.085,3.49352,3.49352,0,0,1-2.53564.9541Z" style="fill:#fffded"/><path d="M752.34784,229.69336l1.79-1.78906h.05957a10.12638,10.12638,0,0,0,4.26562-.68653,4.94425,4.94425,0,0,0,2.23731-2.416l2.32666-4.833,5.90674,2.86328-2.08838,4.35547a22.36461,22.36461,0,0,0,2.92334,1.10352,10.50981,10.50981,0,0,0,3.043.44824,5.16826,5.16826,0,0,0,3.69873-1.10449q1.13306-1.10157,1.1333-3.90723v-3.75879h6.563v3.75879a6.05076,6.05076,0,0,0,.86474,3.63965A2.804,2.804,0,0,0,787.42841,228.5h.59619a2.5173,2.5173,0,0,0,2.02881-.92383,4.57359,4.57359,0,0,0,.77587-2.95312,15.87741,15.87741,0,0,0-.17919-2.11914q-.17945-1.28028-.47706-3.13086l-.5371-3.043,6.50292-1.07422.47754,3.043q.29737,1.73144.417,3.251.11938,1.522.11963,3.07325,0,6.6826-2.29688,9.81347-2.29761,3.1333-7.12939,3.13184-4.23707,0-6.38379-2.02734a11.13072,11.13072,0,0,1-2.92334-6.26563h-.35791q-.47827,4.29639-2.11817,6.29492a5.3217,5.3217,0,0,1-4.32519,1.99805,9.84783,9.84783,0,0,1-3.43067-.626,29.53116,29.53116,0,0,1-4.44433-2.2373l-1.25293-.71582a8.78346,8.78346,0,0,1-4.20606,2.32715,27.40169,27.40169,0,0,1-5.93652.53711Z" style="fill:#fffded"/><path d="M800.73212,242.22266h3.81836q7.81494,0,11.45459-2.71485a8.37525,8.37525,0,0,0,3.63964-7.00976v-1.55078h-.35839a8.07187,8.07187,0,0,1-2.89356,4.4746,8.44416,8.44416,0,0,1-5.041,1.43165,9.95768,9.95768,0,0,1-7.54688-2.834q-2.71583-2.833-2.71484-7.90527a17.37057,17.37057,0,0,1,.9248-5.75684,14.29572,14.29572,0,0,1,2.56543-4.59375,11.98155,11.98155,0,0,1,3.87793-3.043,10.82962,10.82962,0,0,1,4.86231-1.10351,10.56662,10.56662,0,0,1,9.09863,4.74218,17.28587,17.28587,0,0,1,2.416,5.63868,31.06406,31.06406,0,0,1,.835,7.5166q0,10.20264-5.21972,15.92969-5.22217,5.72754-15.30322,5.72753h-4.415Zm12.46923-14.31836a29.81174,29.81174,0,0,0,3.87793-.209,8.03924,8.03924,0,0,0,2.50586-.68652,6.75645,6.75645,0,0,0-2.20752-4.68262,6.9883,6.9883,0,0,0-4.83252-1.76074,6.20115,6.20115,0,0,0-3.9082,1.22363,3.79247,3.79247,0,0,0-1.58105,3.13184,2.38642,2.38642,0,0,0,1.313,2.29687,7.78482,7.78482,0,0,0,3.57959.68653Z" style="fill:#fffded"/><rect y="303.68849" width="280.20233" height="175.17236" rx="19.50967" transform="translate(280.20233 782.54934) rotate(-180)" style="fill:#fffded"/><rect x="5.04226" y="312.13495" width="270.11782" height="28.65878" rx="14.32937" transform="translate(280.20233 652.92869) rotate(-180)" style="fill:#201335"/><path d="M97.2868,288.74414q-8.11449,0-12.58837-3.49023-4.4751-3.49072-4.47461-9.99414a12.96533,12.96533,0,0,1,.50683-3.60938,11.08864,11.08864,0,0,1,1.84961-3.54883,22.35393,22.35393,0,0,1,3.69922-3.72851,49.66454,49.66454,0,0,1,6.05518-4.14649l-7.75586-9.54687v-9.24707a31.76627,31.76627,0,0,1,6.29443-2.11817,29.47537,29.47537,0,0,1,6.47314-.74609q6.91994,0,10.14258,2.44726,3.22119,2.44629,3.22168,7.69532A12.02063,12.02063,0,0,1,109.01,255.125a16.13172,16.13172,0,0,1-5.27979,5.041l-1.4917.95507a10.76562,10.76562,0,0,0,2.56543.44727q1.43189.08936,3.57959.08984H115.364v7.15821l-1.19336,1.791H107.7868a18.73024,18.73024,0,0,1-3.13183-.23926,10.26138,10.26138,0,0,1-2.71485-.86425,13.82838,13.82838,0,0,1-2.68457-1.73047,26.31928,26.31928,0,0,1-2.98291-2.89453q-2.80516,1.79-4.624,3.07324a29.78075,29.78075,0,0,0-2.89355,2.2666,7.25834,7.25834,0,0,0-1.521,1.82031,3.616,3.616,0,0,0-.44775,1.73047v.35742q0,2.50488,2.74462,4.08692,2.74367,1.58057,8.23291,1.58105a17.57371,17.57371,0,0,0,13.00635-5.84765l4.47461,7.041a23.51917,23.51917,0,0,1-8.11426,5.72656A24.66035,24.66035,0,0,1,97.2868,288.74414Zm-6.98046-40.0918,7.2788,8.58985,3.57959-2.02735q3.57935-2.08885,3.57959-4.53515a2.491,2.491,0,0,0-1.64062-2.44532,16.00308,16.00308,0,0,0-5.75733-.71679,30.26471,30.26471,0,0,0-3.75878.23926q-1.91016.23877-3.28125.53711Z" style="fill:#fffded"/><path d="M113.57343,263.44727l1.79-1.78907h11.57422a26.92226,26.92226,0,0,0,3.729-.23925,8.98242,8.98242,0,0,0,2.86328-.835,4.327,4.327,0,0,0,2.47607-4.17578v-2.74511h-.35791q-1.73144,4.71385-7.93506,4.71386-4.83252,0-7.54687-2.53613a9.12,9.12,0,0,1-2.71485-7.01074,17.39153,17.39153,0,0,1,.92481-5.75684,14.32582,14.32582,0,0,1,2.56543-4.59375,11.99181,11.99181,0,0,1,3.87793-3.042,10.83181,10.83181,0,0,1,4.8623-1.10449,10.33023,10.33023,0,0,1,9.09864,4.89258q3.25048,4.89256,3.25146,13.60253a34.26754,34.26754,0,0,1-.95459,8.88868,12.5395,12.5395,0,0,1-2.834,5.42968,9.8202,9.8202,0,0,1-4.71338,2.71485,26.0064,26.0064,0,0,1-6.59229.74609H113.57343Zm10.79882-33.88672a3.4886,3.4886,0,0,1-2.53564-.95508,5.194,5.194,0,0,1,0-6.085,3.492,3.492,0,0,1,2.53564-.9541h1.19336a3.49354,3.49354,0,0,1,2.53565.9541,5.194,5.194,0,0,1,0,6.085,3.49019,3.49019,0,0,1-2.53565.95508Zm5.19043,21.06054a29.23917,29.23917,0,0,0,3.81836-.209,8.0394,8.0394,0,0,0,2.50586-.68652A7.27909,7.27909,0,0,0,133.59,245.043a6.72266,6.72266,0,0,0-4.6836-1.76074,6.19286,6.19286,0,0,0-3.90771,1.22363,3.78991,3.78991,0,0,0-1.58106,3.13184,2.387,2.387,0,0,0,1.3125,2.29687,7.78486,7.78486,0,0,0,3.57959.68652Zm4.23584-21.06054a3.48859,3.48859,0,0,1-2.53564-.95508,5.194,5.194,0,0,1,0-6.085,3.49193,3.49193,0,0,1,2.53564-.9541h1.19336a3.49354,3.49354,0,0,1,2.53565.9541,5.194,5.194,0,0,1,0,6.085,3.49019,3.49019,0,0,1-2.53565.95508Z" style="fill:#fffded"/><path d="M145.90985,275.97656h3.81787a24.02791,24.02791,0,0,0,9.09863-1.43164,9.57956,9.57956,0,0,0,4.86231-3.9375h-6.9209a9.95691,9.95691,0,0,1-7.54687-2.834q-2.71582-2.833-2.71485-7.90528a17.37056,17.37056,0,0,1,.92481-5.75683,14.305,14.305,0,0,1,2.56543-4.59375,11.98155,11.98155,0,0,1,3.87793-3.043,10.83108,10.83108,0,0,1,4.8623-1.10352,10.108,10.108,0,0,1,8.59131,4.29493q3.16187,4.29492,3.46045,11.99218h3.04248v7.15821l-1.78955,1.791h-2.02881a18.1557,18.1557,0,0,1-6.59229,10.58985q-4.92187,3.72656-13.0957,3.72851h-4.41455Zm6.5625-17.30176a2.38605,2.38605,0,0,0,1.3125,2.29688,7.78483,7.78483,0,0,0,3.57959.68652H164.822v-.17968a7.07783,7.07783,0,0,0-1.939-5.18946,6.61358,6.61358,0,0,0-4.92188-1.96972,6.19873,6.19873,0,0,0-3.90771,1.22363A3.79118,3.79118,0,0,0,152.47235,258.6748Z" style="fill:#fffded"/><path d="M187.43231,273.64941q-1.67065-.895-2.98291-1.49121a19.18246,19.18246,0,0,0-2.53564-.95508,13.29066,13.29066,0,0,0-2.4458-.47656q-1.22388-.12012-2.77442-.11914h-4.65381v-7.16015l1.79-1.78907h3.57959V226.458h7.15918v36.09472a25.441,25.441,0,0,1,3.31153,1.25293q1.7.77492,3.84814,1.96875l2.92334,1.61036-4.23584,7.875Z" style="fill:#fffded"/><path d="M196.44012,226.458h7.15918v44.14941h-7.15918Z" style="fill:#fffded"/><g id="ZSReb5.tif"><path d="M751.47024,576.126h-.87772c-.42405,1.17733-1.18022,2.34518-1.21412,3.53365-.13965,4.89529-.04419,9.79694-.07691,14.696a23.06661,23.06661,0,0,1-.4026,2.80548c-1.00532-.93324-1.656-1.49873-2.26349-2.10738q-6.50853-6.52128-13.00282-13.05677c-.41264-.41441-.772-1.04259-1.26514-1.17976a11.77548,11.77548,0,0,0-2.57187-.16975,11.22039,11.22039,0,0,0,.08972,2.544c.12524.493.75217.86284,1.16373,1.27815,5.55875,5.60944,11.16388,11.17429,16.63308,16.86967a5.8369,5.8369,0,0,1,1.564,3.5931c.12493,9.87.0781,19.74236.05369,29.61392a16.68706,16.68706,0,0,1-.4287,2.49326c-.88675-.79444-1.444-1.24848-1.95-1.75389-6.98442-6.97609-13.93639-13.985-20.96382-20.91741a5.644,5.644,0,0,1-1.85972-4.42164q.10817-11.84472-.08337-23.69016c-.01437-.81123-1.07-1.604-1.64246-2.40534a21.03262,21.03262,0,0,0-1.83,2.33876c-.22509.379-.042,1.00123-.04184,1.51308q.00234,8.99414.0009,17.98828c-.0008.76445-.06341,1.52885-.11952,2.79122-.95116-.83029-1.55952-1.30453-2.10248-1.84453q-5.21057-5.18217-10.39922-10.3864c-.94327-.94052-2.01924-1.72993-3.17526-.43459-1.05145,1.17817-.2006,2.16085.66023,3.02412q5.57626,5.59217,11.15909,11.17776c.52956.53277.98287,1.14133,1.7307,2.01907-1.024.11628-1.57362.23287-2.12319.23255-4.46045-.00262-8.92087-.03927-13.38132-.04066-2.85161-.00088-5.71079-.06425-8.54915.14137-.6559.04751-1.24047,1.07988-1.85787,1.659a10.83129,10.83129,0,0,0,1.82151,1.78185c.42541.26232,1.14052.0578,1.72546.058,8.11657.003,16.23414-.0567,24.34866.07377a5.75628,5.75628,0,0,1,3.5964,1.4707c6.96065,6.79082,13.802,13.704,20.67244,20.58713.48479.4857.90994,1.03092,1.67535,1.9056a25.80793,25.80793,0,0,1-2.58538.30557c-10.16408.01563-20.32875.05917-30.49152-.05761a5.52973,5.52973,0,0,1-3.40286-1.51062c-5.63055-5.43143-11.14151-10.98683-16.69411-16.49916-.46665-.46326-.882-1.10073-1.44891-1.30816-.6467-.23661-1.69855-.37456-2.095-.01977a2.52682,2.52682,0,0,0-.45221,2.12044c.1504.62881.84267,1.1548,1.35663,1.66565q6.69019,6.64962,13.39891,13.28061c.53356.53,1.00512,1.12233,1.87382,2.10069-1.34164.11253-2.1062.22928-2.87119.23222-4.67982.018-9.36236-.07465-14.03779.06984-1.18841.03673-2.35437.79989-3.53065,1.22927v.87772c1.17671.42936,2.34329,1.1933,3.5319,1.22926,4.74909.14368,9.50511.045,14.2583.07785a23.65,23.65,0,0,1,2.815.39553c-.9337,1.0005-1.50192,1.64615-2.1085,2.2535q-6.74369,6.75211-13.5,13.49164c-1.0686,1.06776-2.28528,2.27465-.7799,3.69019,1.4134,1.329,2.35783-.168,3.24728-1.05132,5.75916-5.71934,11.448-11.511,17.2899-17.144a6.11779,6.11779,0,0,1,3.80255-1.58022c9.87075-.12914,19.744-.07926,29.61635-.05519a18.2272,18.2272,0,0,1,2.52957.37285,5.35162,5.35162,0,0,1-.49708.87383q-11.38638,11.4141-22.81175,22.789a3.02765,3.02765,0,0,1-1.94631.71051c-8.32762.05235-16.65562.0439-24.98353.04495-1.3816.00017-2.837.05371-2.8619,1.8806-.0244,1.79016,1.43708,1.73687,2.70329,1.73793,6.50782.00541,13.01565-.00521,19.52346.00294.75646.00095,1.51283.08344,2.26924.12813l.25659.54887c-1.08855,1.11509-2.16838,2.23885-3.26729,3.34363-3.09431,3.11079-6.25433,6.16-9.23786,9.37334-.49091.52871-.22054,1.76424-.302,2.67311a13.37142,13.37142,0,0,0,2.71114-.18524c.49151-.12945.85248-.76467,1.2661-1.1783q5.04178-5.04166,10.0875-10.07934c.524-.52038,1.13327-.95488,2.12426-1.77957,0,6.00439-.00107,11.40149.00051,16.79858a62.87575,62.87575,0,0,0,.09919,6.79113c.07853.71812,1.19894,1.32229,1.84268,1.97859a12.65429,12.65429,0,0,0,1.5917-2.04087,4.20791,4.20791,0,0,0,.05579-1.733c.01333-7.8248.06016-15.64984.00967-23.47424a4.96644,4.96644,0,0,1,1.56761-3.87607c7.01692-6.94431,13.9777-13.94535,20.96434-20.92031.48965-.48884,1.03758-.9193,1.92821-1.70181.1441,1.26137.3062,2.02625.30756,2.79142.01727,9.72614-.01839,19.45252.04,29.17834a5.24108,5.24108,0,0,1-1.746,4.03481c-5.55267,5.51274-11.03965,11.09169-16.54408,16.65292a5.83288,5.83288,0,0,0-1.42112,1.6394c-.23307.57987-.27989,1.63506.06983,1.951a2.76153,2.76153,0,0,0,2.12984.43405c.55538-.10908,1.02177-.7757,1.484-1.23871q6.74194-6.75429,13.472-13.52054c.58319-.58414,1.21856-1.11621,2.22808-2.03488.13706,1.41934.28475,2.26159.28882,3.10451.0233,4.82642-.06919,9.65538.07131,14.47784.03464,1.18862.79,2.35625,1.21408,3.53353h.87772c.424-1.17673,1.17947-2.34381,1.21407-3.53188.14047-4.8225.04733-9.6515.072-14.47795.00426-.83216.16229-1.66354.3034-3.01262,1.01345.92611,1.65988,1.47313,2.257,2.06948q6.82982,6.82059,13.64359,13.65727c.97822.97956,2.10359,1.95558,3.3587.653,1.20583-1.25138.09653-2.24957-.79743-3.14613-5.731-5.74773-11.50687-11.45213-17.14869-17.28612a5.80352,5.80352,0,0,1-1.55767-3.588c-.12418-9.871-.07584-19.74416-.057-29.61664a22.9185,22.9185,0,0,1,.31437-2.55345,13.11568,13.11568,0,0,1,1.34011.97785c7.50819,7.48725,15.03172,14.95959,22.46583,22.51984a4.59359,4.59359,0,0,1,1.04121,2.91992c.09668,6.434.05757,12.87012.06446,19.30554.00227,2.12072-.08463,4.24824.06859,6.35818a2.82721,2.82721,0,0,0,1.19011,1.85791,1.78151,1.78151,0,0,0,1.72453-.37354,3.98775,3.98775,0,0,0,.58594-2.2201c.03748-6.72771.01057-13.45574.02051-20.18365.00108-.72916.11528-1.45815.21819-2.67364,1.01432.9382,1.61318,1.45788,2.17364,2.01612,3.316,3.30291,6.617,6.62094,9.93707,9.9197.93546.92943,1.96432,2.13787,3.32477.834,1.36775-1.3108.22869-2.37166-.717-3.32166-3.25028-3.26518-6.51756-6.51347-9.76332-9.78314-.5287-.53259-.98121-1.14083-1.86721-2.18224,1.393,0,2.16784,0,2.9427,0,6.36228.00012,12.72459-.01062,19.08681.0087,1.42469.00433,2.9248-.22873,2.99876-1.84206.08343-1.81992-1.53287-1.77055-2.893-1.76989-7.898.00385-15.79624-.04491-23.69362.0202a5.1706,5.1706,0,0,1-4.053-1.66244c-7.1967-7.28165-14.46009-14.49735-21.69428-21.742-.49225-.49295-.92746-1.04286-1.72-1.94122,1.40446-.1346,2.315-.29586,3.22589-.29772,9.21432-.01882,18.429.02844,27.64277-.04453a5.86463,5.86463,0,0,1,4.62224,1.9213c5.6767,5.80052,11.46425,11.49261,17.21438,17.22121.91931.91587,1.90933,1.83074,3.16086.57023,1.17114-1.17952.30439-2.13095-.5534-2.99043q-7.05081-7.0647-14.11456-14.11653c-.5992-.60024-1.15431-1.24448-2.08376-2.252,1.33924-.14291,2.17122-.3046,3.004-.30862,5.119-.02461,10.24023.065,15.3556-.07313,1.18752-.03207,2.35516-.80008,3.53194-1.22945v-.87772c-1.17642-.42939-2.34351-1.19664-3.53089-1.22946-5.0416-.13936-10.08933-.04559-15.13456-.07768a17.48432,17.48432,0,0,1-2.39148-.33648l-.26365-.63375c2.462-2.37008,4.94131-4.72245,7.38128-7.115,2.71485-2.66206,5.39941-5.35513,8.08529-8.04654.89017-.892,1.93759-1.82834.71162-3.15133-1.24844-1.34724-2.20454-.3354-3.13188.53572-.21313.2002-.41843.40876-.62613.61469-5.556,5.50868-11.06295,11.06859-16.71591,16.47589a6.15373,6.15373,0,0,1-3.7977,1.60029c-9.57716.13272-19.157.08035-28.736.05735a19.66128,19.66128,0,0,1-2.55756-.35244,5.02,5.02,0,0,1,.47876-.87008q11.1516-11.18091,22.34593-22.3188a3.32664,3.32664,0,0,1,2.13841-.76476c8.18022-.05624,16.361-.05086,24.5415-.03465,1.4475.00287,2.87731-.29378,2.922-1.91782.04555-1.65616-1.45627-1.717-2.75537-1.71581q-9.65109.00876-19.30217-.00192c-.74577-.00138-1.49135-.10611-2.80434-.20615.86276-.96112,1.30775-1.50267,1.79982-1.99741q4.09946-4.12161,8.21732-8.2249a27.53168,27.53168,0,0,0,3.33192-3.4717c.43722-.62933.14173-1.76772.178-2.67562a11.651,11.651,0,0,0-2.55156.17456c-.49473.13932-.85686.76148-1.27055,1.17484q-5.50876,5.50443-11.02129,11.005c-.52383.52011-1.139.94818-2.1549,1.78275,0-1.41165-.00033-2.19893.00005-2.98622q.00482-9.7618.00863-19.52361c.00012-.58479.18437-1.28678-.07231-1.72717-.39412-.67617-1.08506-1.60687-1.67188-1.62276-.58492-.01583-1.32917.87771-1.74914,1.53507-.26956.42194-.09175,1.13789-.09256,1.72208-.01134,8.11655-.05647,16.23339.00475,24.34942a4.94072,4.94072,0,0,1-1.60631,3.85379c-6.70593,6.6335-13.35584,13.32362-20.0327,19.98656-.49837.49733-1.06059.93065-1.9069,1.66656a15.92873,15.92873,0,0,1-.36464-2.21868c-.019-10.16393-.04224-20.32811.03452-30.4915a4.27725,4.27725,0,0,1,1.10379-2.6931c5.61414-5.75856,11.31619-11.43139,16.9902-17.13161.515-.51739,1.22464-.96913,1.46458-1.59644a2.476,2.476,0,0,0-.08225-2.11554,2.77036,2.77036,0,0,0-2.1447-.32063c-.49241.08637-.91494.68578-1.327,1.0977q-6.74866,6.74529-13.48675,13.50113c-.59666.59618-1.24249,1.14315-2.25632,2.07026-.14074-1.3486-.29873-2.1817-.303-3.01559-.02473-4.82594.06845-9.65445-.072-14.47644C752.64969,578.47014,751.89429,577.30291,751.47024,576.126Z" style="fill:#fffded"/></g><path d="M688.67987,780.53906a.84855.84855,0,0,0,.84863-.84863V748.73437a.84863.84863,0,0,0-1.69726,0v30.95606A.84855.84855,0,0,0,688.67987,780.53906Z" style="fill:#fffded"/><path d="M673.20233,765.06055H704.1579a.84864.84864,0,0,0,0-1.69727H673.20233a.84864.84864,0,0,0,0,1.69727Z" style="fill:#fffded"/><path d="M699.62469,776.00488a.84863.84863,0,0,0,.6001-1.44824L678.33563,752.668a.84832.84832,0,1,0-1.20019,1.19922l21.88916,21.88867A.84475.84475,0,0,0,699.62469,776.00488Z" style="fill:#fffded"/><path d="M677.73553,776.00488a.84477.84477,0,0,0,.6001-.249l21.88916-21.88867a.84832.84832,0,1,0-1.20019-1.19922l-21.88916,21.88867a.84863.84863,0,0,0,.60009,1.44824Z" style="fill:#fffded"/><path d="M766.67987,812.53906a.84855.84855,0,0,0,.84863-.84863V780.73437a.84863.84863,0,0,0-1.69726,0v30.95606A.84855.84855,0,0,0,766.67987,812.53906Z" style="fill:#fffded"/><path d="M751.20233,797.06055H782.1579a.84864.84864,0,0,0,0-1.69727H751.20233a.84864.84864,0,0,0,0,1.69727Z" style="fill:#fffded"/><path d="M777.62469,808.00488a.84863.84863,0,0,0,.6001-1.44824L756.33563,784.668a.84832.84832,0,1,0-1.20019,1.19922l21.88916,21.88867A.84475.84475,0,0,0,777.62469,808.00488Z" style="fill:#fffded"/><path d="M755.73553,808.00488a.84477.84477,0,0,0,.6001-.249l21.88916-21.88867a.84832.84832,0,1,0-1.20019-1.19922l-21.88916,21.88867a.84863.84863,0,0,0,.60009,1.44824Z" style="fill:#fffded"/><path d="M836.67987,758.53906a.84855.84855,0,0,0,.84863-.84863V726.73437a.84863.84863,0,1,0-1.69726,0v30.95606A.84855.84855,0,0,0,836.67987,758.53906Z" style="fill:#fffded"/><path d="M821.20233,743.06055H852.1579a.84864.84864,0,0,0,0-1.69727H821.20233a.84864.84864,0,0,0,0,1.69727Z" style="fill:#fffded"/><path d="M847.62469,754.00488a.84863.84863,0,0,0,.6001-1.44824L826.33563,730.668a.84832.84832,0,1,0-1.20019,1.19922l21.88916,21.88867A.84475.84475,0,0,0,847.62469,754.00488Z" style="fill:#fffded"/><path d="M825.73553,754.00488a.84477.84477,0,0,0,.6001-.249l21.88916-21.88867a.84832.84832,0,1,0-1.20019-1.19922l-21.88916,21.88867a.84863.84863,0,0,0,.60009,1.44824Z" style="fill:#fffded"/><path d="M591.67987,792.53906a.84855.84855,0,0,0,.84863-.84863V760.73437a.84863.84863,0,0,0-1.69726,0v30.95606A.84855.84855,0,0,0,591.67987,792.53906Z" style="fill:#fffded"/><path d="M576.20233,777.06055H607.1579a.84864.84864,0,0,0,0-1.69727H576.20233a.84864.84864,0,0,0,0,1.69727Z" style="fill:#fffded"/><path d="M602.62469,788.00488a.84863.84863,0,0,0,.6001-1.44824L581.33563,764.668a.84832.84832,0,1,0-1.20019,1.19922l21.88916,21.88867A.84475.84475,0,0,0,602.62469,788.00488Z" style="fill:#fffded"/><path d="M580.73553,788.00488a.84477.84477,0,0,0,.6001-.249l21.88916-21.88867a.84832.84832,0,1,0-1.20019-1.19922l-21.88916,21.88867a.84863.84863,0,0,0,.60009,1.44824Z" style="fill:#fffded"/><path d="M670.67987,552.53906a.84855.84855,0,0,0,.84863-.84863V520.73437a.84863.84863,0,0,0-1.69726,0v30.95606A.84855.84855,0,0,0,670.67987,552.53906Z" style="fill:#fffded"/><path d="M655.20233,537.06055H686.1579a.84864.84864,0,0,0,0-1.69727H655.20233a.84864.84864,0,0,0,0,1.69727Z" style="fill:#fffded"/><path d="M681.62469,548.00488a.84863.84863,0,0,0,.6001-1.44824L660.33563,524.668a.84832.84832,0,1,0-1.20019,1.19922l21.88916,21.88867A.84475.84475,0,0,0,681.62469,548.00488Z" style="fill:#fffded"/><path d="M659.73553,548.00488a.84477.84477,0,0,0,.6001-.249l21.88916-21.88867a.84832.84832,0,1,0-1.20019-1.19922l-21.88916,21.88867a.84863.84863,0,0,0,.60009,1.44824Z" style="fill:#fffded"/><path d="M793.67987,552.53906a.84855.84855,0,0,0,.84863-.84863V520.73437a.84863.84863,0,1,0-1.69726,0v30.95606A.84855.84855,0,0,0,793.67987,552.53906Z" style="fill:#fffded"/><path d="M778.20233,537.06055H809.1579a.84864.84864,0,0,0,0-1.69727H778.20233a.84864.84864,0,0,0,0,1.69727Z" style="fill:#fffded"/><path d="M804.62469,548.00488a.84863.84863,0,0,0,.6001-1.44824L783.33563,524.668a.84832.84832,0,1,0-1.20019,1.19922l21.88916,21.88867A.84475.84475,0,0,0,804.62469,548.00488Z" style="fill:#fffded"/><path d="M782.73553,548.00488a.84477.84477,0,0,0,.6001-.249l21.88916-21.88867a.84832.84832,0,1,0-1.20019-1.19922l-21.88916,21.88867a.84863.84863,0,0,0,.60009,1.44824Z" style="fill:#fffded"/><path d="M595.67987,658.53906a.84855.84855,0,0,0,.84863-.84863V626.73437a.84863.84863,0,0,0-1.69726,0v30.95606A.84855.84855,0,0,0,595.67987,658.53906Z" style="fill:#fffded"/><path d="M580.20233,643.06055H611.1579a.84864.84864,0,0,0,0-1.69727H580.20233a.84864.84864,0,0,0,0,1.69727Z" style="fill:#fffded"/><path d="M606.62469,654.00488a.84863.84863,0,0,0,.6001-1.44824L585.33563,630.668a.84832.84832,0,1,0-1.20019,1.19922l21.88916,21.88867A.84475.84475,0,0,0,606.62469,654.00488Z" style="fill:#fffded"/><path d="M584.73553,654.00488a.84477.84477,0,0,0,.6001-.249l21.88916-21.88867a.84832.84832,0,1,0-1.20019-1.19922l-21.88916,21.88867a.84863.84863,0,0,0,.60009,1.44824Z" style="fill:#fffded"/><path d="M873.67987,639.53906a.84855.84855,0,0,0,.84863-.84863V607.73437a.84863.84863,0,1,0-1.69726,0v30.95606A.84855.84855,0,0,0,873.67987,639.53906Z" style="fill:#fffded"/><path d="M858.20233,624.06055H889.1579a.84864.84864,0,0,0,0-1.69727H858.20233a.84864.84864,0,0,0,0,1.69727Z" style="fill:#fffded"/><path d="M884.62469,635.00488a.84863.84863,0,0,0,.6001-1.44824L863.33563,611.668a.84832.84832,0,1,0-1.20019,1.19922l21.88916,21.88867A.84475.84475,0,0,0,884.62469,635.00488Z" style="fill:#fffded"/><path d="M862.73553,635.00488a.84477.84477,0,0,0,.6001-.249l21.88916-21.88867a.84832.84832,0,1,0-1.20019-1.19922l-21.88916,21.88867a.84863.84863,0,0,0,.60009,1.44824Z" style="fill:#fffded"/><path d="M150.67548,367.52832c.45849,0,.91455-.001,1.373-.00391,14.17432-.083,28.55518-1.47461,42.46241-2.82031,21.68017-2.09863,44.09814-4.26758,65.94628-1.458a1.10178,1.10178,0,1,0,.28125-2.18554c-22.09521-2.8418-44.63818-.65918-66.43945,1.45019-13.85889,1.34082-28.189,2.72754-42.26318,2.81055a232.13911,232.13911,0,0,1-52.3833-5.6875,1.10129,1.10129,0,1,0-.48535,2.14844A234.02263,234.02263,0,0,0,150.67548,367.52832Z" style="fill:#201335"/><path d="M181.09686,380.89746c.01416,0,.02783,0,.042-.001l77.53614-2.89257a1.10135,1.10135,0,1,0-.082-2.20118l-77.53614,2.89258a1.10145,1.10145,0,0,0,.04,2.20215Z" style="fill:#201335"/><path d="M210.52411,396.7793q.82909,0,1.65967-.04688c4.64648-.26074,9.11523-1.64551,13.437-2.98437,2.49414-.77246,5.07373-1.57227,7.63183-2.13379,8.14356-1.78906,15.23-.27149,18.95655,4.05273a1.10134,1.10134,0,1,0,1.66894-1.4375c-4.26318-4.94922-12.15088-6.72949-21.09814-4.76758-2.64893.582-5.27344,1.39454-7.81153,2.18164-4.38769,1.35938-8.53222,2.64356-12.90869,2.88965-7.18164.4043-14.46191-2.166-20.8789-4.43261a1.102,1.102,0,0,0-.73438,2.07812C196.5788,394.34473,203.4704,396.77832,210.52411,396.7793Z" style="fill:#201335"/><path d="M55.09735,429.86621c3.01416,0,5.9541-1.32324,8.937-2.81641l9.915-4.96289a1.10187,1.10187,0,1,0-.98633-1.9707l-9.915,4.96289c-3.29638,1.65039-6.50976,3.07617-9.55468,2.415a15.07348,15.07348,0,0,1-4.78467-2.36719,17.24107,17.24107,0,0,0-5.41113-2.64941c-3.3545-.7666-6.63672.376-9.8125,1.48144-3.26123,1.13477-6.34034,2.21-9.17578,1.124a1.10123,1.10123,0,1,0-.78809,2.05664c3.58545,1.376,7.19726.11719,10.689-1.09961,3.01368-1.04981,5.85743-2.04492,8.59424-1.41406a15.38121,15.38121,0,0,1,4.709,2.35156,16.92634,16.92634,0,0,0,5.51269,2.66992A9.75918,9.75918,0,0,0,55.09735,429.86621Z" style="fill:#201335"/><path d="M61.3161,445.53223a14.07155,14.07155,0,0,0,8.3584-2.44239L69.989,444.251a1.10181,1.10181,0,1,0,2.127-.57618l-.77539-2.86328a1.10193,1.10193,0,0,0-1.86426-.46875,11.17215,11.17215,0,0,1-8.34278,2.98535,38.49205,38.49205,0,0,1-7.95214-1.22949c-.56641-.12793-1.13233-.25586-1.69825-.3789a93.63326,93.63326,0,0,0-31.71972-1.38086,1.10153,1.10153,0,0,0,.27734,2.18554A91.39355,91.39355,0,0,1,51.0163,443.874c.55957.1211,1.11865.24707,1.67871.374a40.23019,40.23019,0,0,0,8.415,1.2832C61.17889,445.53223,61.24774,445.53223,61.3161,445.53223Z" style="fill:#201335"/><path d="M46.51239,457.94727c7.03857,0,14.0791-.21094,21.0708-.63184a1.10161,1.10161,0,0,0-.13281-2.19922,349.42828,349.42828,0,0,1-41.106.04492,1.10147,1.10147,0,1,0-.12793,2.19922C32.9494,457.752,39.73016,457.94727,46.51239,457.94727Z" style="fill:#201335"/><path d="M1189.16864,167.35742a1.5,1.5,0,0,0,.46191-2.92676c-70.84082-22.94824-192.20654-23.43847-265.02343-1.07129a1.49972,1.49972,0,1,0,.88086,2.86719c72.32714-22.21582,192.86621-21.73144,263.21777,1.05762A1.49965,1.49965,0,0,0,1189.16864,167.35742Z" style="fill:#e0d5a4"/><path d="M948.78534,172.95575a1.50057,1.50057,0,0,0-1.021-1.85986l-22.03393-6.4195,15.13525-17.25195a1.50036,1.50036,0,0,0-2.25537-1.97931L921.92206,164.468a1.50067,1.50067,0,0,0,.70825,2.43017l24.29517,7.07874a1.50123,1.50123,0,0,0,1.85986-1.02118Z" style="fill:#e0d5a4"/><path d="M1055.41425,260.335c47.47216,0,94.97412-5.47168,130.75585-16.46289a1.49972,1.49972,0,1,0-.88085-2.86719C1112.96259,263.2207,992.424,262.73633,922.072,239.94727a1.49981,1.49981,0,1,0-.9248,2.85351C957.17694,254.47266,1006.27948,260.335,1055.41425,260.335Z" style="fill:#e0d5a4"/><path d="M1161.99213,234.27551a1.50033,1.50033,0,0,0,1.021,1.85987l22.03394,6.41949-15.13526,17.252a1.50037,1.50037,0,0,0,2.25538,1.97931l16.68823-19.02295a1.5006,1.5006,0,0,0-.70825-2.43011l-24.29541-7.07874a1.50077,1.50077,0,0,0-1.85962,1.02112Z" style="fill:#e0d5a4"/><path d="M577.04364,883.00586a54.84214,54.84214,0,0,1-8.34277-.5332,16.22753,16.22753,0,0,1-5.46924-1.71485,6.95721,6.95721,0,0,1-2.98975-3.10547,11.00676,11.00676,0,0,1-.90381-4.7041,21.94518,21.94518,0,0,1,1.90039-8.2959l3.56885,1.06543a24.05628,24.05628,0,0,0-1.34424,3.40723,10.15473,10.15473,0,0,0-.46338,2.89648,4.26516,4.26516,0,0,0,2.57227,4.125q2.573,1.251,8.4126,1.252h6.48926q3.33691,0,5.46923-.16211a13.25121,13.25121,0,0,0,3.36036-.60352,3.29059,3.29059,0,0,0,1.71484-1.18164,3.397,3.397,0,0,0,.48682-1.90039v-7.04492h4.03271v7.04492q0,3.66212,3.84668,3.66211h1.52979v4.125l-1.11231,1.11231q-6.62914,0-7.8335-5.376H591.737a6.74082,6.74082,0,0,1-1.18213,2.84961,5.9143,5.9143,0,0,1-2.54932,1.83105,16.0149,16.0149,0,0,1-4.35693.97364A65.36608,65.36608,0,0,1,577.04364,883.00586Zm-3.56885-17.51953a2.24125,2.24125,0,0,1-1.69189-.64942,3.52422,3.52422,0,0,1,0-4.00879,2.28338,2.28338,0,0,1,1.69189-.626h.69531a2.36421,2.36421,0,0,1,1.71485.626,3.42,3.42,0,0,1,0,4.00879,2.31956,2.31956,0,0,1-1.71485.64942Zm6.53565,0a2.23978,2.23978,0,0,1-1.6919-.64942,3.522,3.522,0,0,1,0-4.00879,2.28188,2.28188,0,0,1,1.6919-.626h.69482a2.36537,2.36537,0,0,1,1.71533.626,3.41994,3.41994,0,0,1,0,4.00879,2.32067,2.32067,0,0,1-1.71533.64942Z" style="fill:#fffded"/><path d="M599.80145,878.3252l1.11231-1.11231h.97314a9.87064,9.87064,0,0,0,4.44971-.71875,2.72752,2.72752,0,0,0,1.29785-2.61914q0-.78809-.11572-1.99219-.11646-1.20556-.44043-3.19922l-.7417-4.03125,4.03271-.64941.60254,4.03223a41.85691,41.85691,0,0,1,.55616,5.83984q0,4.3579-2.36377,6.4668-2.36427,2.10938-7.27735,2.1084h-2.08545Zm7.60157-19.04981a2.23981,2.23981,0,0,1-1.6919-.64941,3.522,3.522,0,0,1,0-4.00879,2.28185,2.28185,0,0,1,1.6919-.626h.69482a2.36533,2.36533,0,0,1,1.71533.626,3.41994,3.41994,0,0,1,0,4.00879,2.32071,2.32071,0,0,1-1.71533.64941Z" style="fill:#fffded"/><path d="M616.53387,848.15039h4.31055V882.4502h-4.31055Z" style="fill:#fffded"/><path d="M1245.85809,26.32031a41.70539,41.70539,0,0,1-6.17724-.38476,12.47833,12.47833,0,0,1-4.04248-1.22461,5.10671,5.10671,0,0,1-2.22266-2.22266,7.57857,7.57857,0,0,1-.68262-3.37793,11.813,11.813,0,0,1,.36768-2.87012,21.50811,21.50811,0,0,1,1.13721-3.25488l2.17041.665a12.19227,12.19227,0,0,0-1.43506,5.10938,3.53338,3.53338,0,0,0,2.02978,3.34375,14.46084,14.46084,0,0,0,6.40528,1.0664h4.8999q2.51954,0,4.165-.13965a9.65057,9.65057,0,0,0,2.58984-.50683,2.49139,2.49139,0,0,0,1.3125-.998,3.16073,3.16073,0,0,0,.36768-1.60937V14.38477h2.4497V19.916a2.62969,2.62969,0,0,0,2.9751,2.97461h1.2251V25.2002l-.7002.70019q-4.82958,0-5.66992-3.57031h-.1748a4.41,4.41,0,0,1-.80518,1.96094,3.97935,3.97935,0,0,1-1.8374,1.2246,13.01077,13.01077,0,0,1-3.25488.62989Q1248.93744,26.31983,1245.85809,26.32031Zm-.21,6.58008a1.55464,1.55464,0,0,1-1.12011-.40234,1.75649,1.75649,0,0,1-.41993-1.3125,1.75346,1.75346,0,0,1,.41993-1.3125,1.55044,1.55044,0,0,1,1.12011-.40235h.38526a1.54927,1.54927,0,0,1,1.11963.40235,1.75155,1.75155,0,0,1,.42041,1.3125,1.75458,1.75458,0,0,1-.42041,1.3125,1.55347,1.55347,0,0,1-1.11963.40234Z" style="fill:#b09af4"/><path d="M1262.69257,23.58984l.70019-.69921h1.18994q1.53956,0,2.85254-.10546a20.01164,20.01164,0,0,0,2.67774-.40235,21.82838,21.82838,0,0,0,2.8872-.85742q1.52271-.55958,3.44776-1.4707l3.21972-1.53906V18.375l-5.17968-1.1543-7.24512-1.78515v3.00976h-2.4502V15.75a2.86257,2.86257,0,0,1,.82276-2.22266,2.96783,2.96783,0,0,1,2.08252-.752,5.93934,5.93934,0,0,1,.92724.08789q.542.0879,1.69776.36719l8.54,2.20508q1.92406.48926,3.21972.68164a15.46128,15.46128,0,0,0,2.24024.19336h.56006v3.00976h-2.66016v.41992a3.2061,3.2061,0,0,0,.77,2.4502,3.45,3.45,0,0,0,2.37988.70019h1.2251V25.2002l-.7002.70019a10.64692,10.64692,0,0,1-2.625-.2793,3.69939,3.69939,0,0,1-2.78222-2.59082,8.70033,8.70033,0,0,1-.36768-2.48535l-2.73,1.64551a38.12147,38.12147,0,0,1-3.8501,2.04785,18.99354,18.99354,0,0,1-3.1499,1.11914,15.74823,15.74823,0,0,1-2.85254.45508q-1.38281.08789-2.95752.08789h-1.89013Zm11.165,9.31055a1.55264,1.55264,0,0,1-1.11963-.40234,1.75454,1.75454,0,0,1-.42041-1.3125,1.75151,1.75151,0,0,1,.42041-1.3125,1.54845,1.54845,0,0,1,1.11963-.40235h.38525a1.55126,1.55126,0,0,1,1.12012.40235,1.7535,1.7535,0,0,1,.41992,1.3125,1.75653,1.75653,0,0,1-.41992,1.3125,1.55546,1.55546,0,0,1-1.12012.40234Z" style="fill:#b09af4"/><path d="M1285.89764,23.58984l.7002-.69921h1.18994q1.53955,0,2.85254-.10546a20.01126,20.01126,0,0,0,2.67773-.40235,21.8285,21.8285,0,0,0,2.88721-.85742q1.52271-.55958,3.44776-1.4707l3.21972-1.53907V18.375l-5.17969-1.1543-7.24511-1.78515v3.00976h-2.4502V15.75a2.86257,2.86257,0,0,1,.82276-2.22266,2.96781,2.96781,0,0,1,2.08252-.752,5.93944,5.93944,0,0,1,.92724.08789q.542.0879,1.69776.36719l8.54,2.20508q1.92408.48926,3.21973.68164a15.461,15.461,0,0,0,2.24024.19336h.56005v3.00976h-2.66015v.41992a3.2061,3.2061,0,0,0,.77,2.4502,3.45,3.45,0,0,0,2.37988.70019h1.2251V25.2002l-.7002.70019a10.64692,10.64692,0,0,1-2.625-.2793,3.69934,3.69934,0,0,1-2.78222-2.59082,8.70033,8.70033,0,0,1-.36768-2.48535l-2.73,1.64551a38.12254,38.12254,0,0,1-3.8501,2.04785,18.99386,18.99386,0,0,1-3.1499,1.11914,15.74823,15.74823,0,0,1-2.85254.45508q-1.38281.08789-2.95752.08789h-1.89014Z" style="fill:#b09af4"/><path d="M1309.10223,23.58984l.7002-.69922h1.01514a3.29109,3.29109,0,0,0,2.43212-.76953,3.40371,3.40371,0,0,0,.75293-2.45117V0h2.58985V19.66992a6.82591,6.82591,0,0,1-1.38233,4.72559,5.70661,5.70661,0,0,1-4.39257,1.50488h-1.71534Z" style="fill:#b09af4"/><path d="M1321.84247,0h2.58984V25.90039h-2.58984Z" style="fill:#b09af4"/><path d="M1351.277,25.90039a11.92764,11.92764,0,0,1-2.7124-.26269,4,4,0,0,1-1.78516-.875,3.53976,3.53976,0,0,1-.99756-1.5752,7.79441,7.79441,0,0,1-.31494-2.39648v-.59571h-.1748a4.25,4.25,0,0,1-1.6626,2.36328,4.94084,4.94084,0,0,1-2.81739.78711,5.06584,5.06584,0,0,1-3.65771-1.25976,4.7184,4.7184,0,0,1-1.3125-3.57032,5.29283,5.29283,0,0,1,.31494-1.83789,5.42151,5.42151,0,0,1,1.03272-1.67968,11.24243,11.24243,0,0,1,1.8374-1.64453,27.45813,27.45813,0,0,1,2.73-1.73243l3.53516-2.03125v-1.75h2.4497V20.44043a2.20854,2.20854,0,0,0,.73535,1.94238,4.05544,4.05544,0,0,0,2.27491.50781h1.22509V25.2002Zm-9.93994-5.56445a5.68191,5.68191,0,0,0,3.04492-.61035,2.4287,2.4287,0,0,0,.91016-2.17774V12.46094L1341.757,14.3418a10.91682,10.91682,0,0,0-2.66016,1.86523,2.78219,2.78219,0,0,0-.80468,1.96875,1.92985,1.92985,0,0,0,.68261,1.63672A3.99062,3.99062,0,0,0,1341.3371,20.33594Zm.56006-15.40039a1.55381,1.55381,0,0,1-1.12012-.40235,1.75346,1.75346,0,0,1-.41992-1.3125,1.75347,1.75347,0,0,1,.41992-1.3125,1.55385,1.55385,0,0,1,1.12012-.40234h.38476a1.55386,1.55386,0,0,1,1.12012.40234,1.75152,1.75152,0,0,1,.41992,1.3125,1.7515,1.7515,0,0,1-.41992,1.3125,1.55383,1.55383,0,0,1-1.12012.40235Zm4.51513,0a1.553,1.553,0,0,1-1.12011-.40235,1.75146,1.75146,0,0,1-.41993-1.3125,1.75148,1.75148,0,0,1,.41993-1.3125,1.553,1.553,0,0,1,1.12011-.40234h.38477a1.55542,1.55542,0,0,1,1.12012.40234,1.75351,1.75351,0,0,1,.41992,1.3125,1.7535,1.7535,0,0,1-.41992,1.3125,1.55542,1.55542,0,0,1-1.12012.40235Z" style="fill:#b09af4"/><path d="M1351.277,23.58984l.70019-.69922h5.0752l.06982-.14063a11.28671,11.28671,0,0,1-2.76513-3.02734,7.21477,7.21477,0,0,1-.98-3.79688,7.46806,7.46806,0,0,1,.45507-2.625,6.58566,6.58566,0,0,1,1.29493-2.15234,6.18309,6.18309,0,0,1,2.01269-1.47071,6.36567,6.36567,0,0,1,5.145,0,6.2297,6.2297,0,0,1,3.30762,3.60547,7.6365,7.6365,0,0,1,.45459,2.64258,7.21477,7.21477,0,0,1-.98,3.79688,11.28447,11.28447,0,0,1-2.76465,3.02734l.06982.14063h5.0752V25.2002l-.7002.70019h-.49023a14.366,14.366,0,0,1-3.42969-.40234,4.623,4.623,0,0,0-6.23,0,14.37593,14.37593,0,0,1-3.43017.40234H1351.277Zm5.88037-18.65429a1.553,1.553,0,0,1-1.12012-.40235,1.7515,1.7515,0,0,1-.41992-1.3125,1.75152,1.75152,0,0,1,.41992-1.3125,1.553,1.553,0,0,1,1.12012-.40234h.38477a1.55539,1.55539,0,0,1,1.12011.40234,1.75347,1.75347,0,0,1,.41992,1.3125,1.75346,1.75346,0,0,1-.41992,1.3125,1.5554,1.5554,0,0,1-1.12011.40235Zm2.55469,16.90429a9.00852,9.00852,0,0,0,2.835-2.32714,5.10608,5.10608,0,0,0,1.05029-3.23731,4.313,4.313,0,0,0-1.01514-3.00977,3.46394,3.46394,0,0,0-2.69482-1.12011h-.3501a3.46184,3.46184,0,0,0-2.69482,1.12011,4.30838,4.30838,0,0,0-1.01514,3.00977,5.10857,5.10857,0,0,0,1.04981,3.23731A9.01394,9.01394,0,0,0,1359.7121,21.83984Zm1.96-16.90429a1.5526,1.5526,0,0,1-1.11963-.40235,1.75155,1.75155,0,0,1-.42041-1.3125,1.75157,1.75157,0,0,1,.42041-1.3125,1.55264,1.55264,0,0,1,1.11963-.40234h.38525a1.55544,1.55544,0,0,1,1.12012.40234,1.75351,1.75351,0,0,1,.41992,1.3125,1.7535,1.7535,0,0,1-.41992,1.3125,1.55541,1.55541,0,0,1-1.12012.40235Z" style="fill:#b09af4"/><path d="M1390.86151,25.90039a9.18363,9.18363,0,0,1-2.22265-.22754,3.79551,3.79551,0,0,1-1.62745-.89258,9.76346,9.76346,0,0,1-5.10986,1.12012h-15.15527V23.58984l.70019-.69922h1.81983l1.29541-2.20507V0h2.58984V12.81055l-.41992,4.09472.1748.07032a17.70051,17.70051,0,0,1,2.31006-2.57325,11.67925,11.67925,0,0,1,2.36231-1.66211,10.11432,10.11432,0,0,1,2.45019-.91015,11.73057,11.73057,0,0,1,2.57227-.2793,7.18455,7.18455,0,0,1,5.28515,1.87207,6.94106,6.94106,0,0,1,1.89014,5.16309,9.05021,9.05021,0,0,1-.80518,4.05957,6.10021,6.10021,0,0,0,1.89014.24511h.7002V25.2002Zm-8.96-3.00976a7.62946,7.62946,0,0,0,4.0249-.875,3.34124,3.34124,0,0,0,1.39991-3.08007,4.43813,4.43813,0,0,0-1.10254-3.27246,4.18614,4.18614,0,0,0-3.09717-1.10254h-1.05029a11.3756,11.3756,0,0,0-2.5376.26172,7.06231,7.06231,0,0,0-2.16992.91015,9.40066,9.40066,0,0,0-2.02979,1.78516,25.5792,25.5792,0,0,0-2.11768,2.85351l-1.50488,2.34375.105.17578Z" style="fill:#b09af4"/><path d="M1390.861,23.58984l.7002-.69922h1.2251a2.62987,2.62987,0,0,0,2.97509-2.97461V14.38477h2.44971V19.916a2.62969,2.62969,0,0,0,2.9751,2.97461h1.2251V25.2002l-.7002.70019q-4.8296,0-5.66992-3.42969h-.17481a3.99652,3.99652,0,0,1-1.50537,2.67774,6.38974,6.38974,0,0,1-3.5.752Zm5.915-13.40429a1.55263,1.55263,0,0,1-1.11963-.40235,1.75155,1.75155,0,0,1-.42041-1.3125,1.75157,1.75157,0,0,1,.42041-1.3125,1.55263,1.55263,0,0,1,1.11963-.40234h.38526a1.55539,1.55539,0,0,1,1.12011.40234,1.75348,1.75348,0,0,1,.41993,1.3125,1.75346,1.75346,0,0,1-.41993,1.3125,1.5554,1.5554,0,0,1-1.12011.40235Z" style="fill:#b09af4"/><path d="M1406.29608,23.87109a4.7152,4.7152,0,0,1-1.87207,1.55664,6.74609,6.74609,0,0,1-2.71289.47266V23.58984l.7002-.69922a3.275,3.275,0,0,0,1.13769-.17578,2.293,2.293,0,0,0,.83985-.542,3.60217,3.60217,0,0,0,.665-.97949q.29664-.6123.61231-1.45313l.98-2.58984a7.84936,7.84936,0,0,1,2.13525-3.2373,5.24931,5.24931,0,0,1,3.53467-1.1377,4.44755,4.44755,0,0,1,4.00781,2.3457,12.59355,12.59355,0,0,1,1.41748,6.50977v1.64453l-2.06494,3.04492Zm1.40039-2.76562,7.59473,2.0293V21.63086a8.65435,8.65435,0,0,0-.89258-4.28809,2.76335,2.76335,0,0,0-2.50244-1.55761,2.60017,2.60017,0,0,0-2.04736.80468,6.83274,6.83274,0,0,0-1.20752,2.03125Z" style="fill:#b09af4"/><path d="M824.5954,599.87793a1.49575,1.49575,0,0,0,1.11914-.501c25.04443-28.03906,52.2793-62.26953,64.38623-103.55664a140.76536,140.76536,0,0,0,4.18408-61.624c-3.47656-21.5293-12.35254-40.47656-25.66943-54.79395-6.21289-6.67968-13.64014-12.81054-20.82276-18.73828-16.00634-13.21094-31.12451-25.68945-34.58935-44.04687a1.50016,1.50016,0,0,0-2.94824.55664c3.6665,19.42383,19.91455,32.834,35.62793,45.80371,7.10791,5.86621,14.45752,11.93262,20.53613,18.46777,12.91064,13.88086,21.52246,32.28711,24.9043,53.22852a137.76,137.76,0,0,1-4.10157,60.30273c-11.939,40.71485-38.92285,74.61231-63.74463,102.40235a1.49972,1.49972,0,0,0,1.11817,2.499Z" style="fill:#e0d5a4"/><polygon points="802.456 329.404 805.075 330.871 812.289 317.958 824.643 326.097 826.292 323.588 811.245 313.678 802.456 329.404" style="fill:#e0d5a4"/><path d="M655.216,591.86914a1.5,1.5,0,0,0,.36328-2.95508c-25.208-6.30761-43.71044-14.78906-58.228-26.69043-18.915-15.50683-29.75147-37.15918-28.98682-57.91992.60205-16.33789,8.59766-41.22754,43.26953-67.02344,8.04395-5.98437,16.66553-11.542,25.00342-16.917,14.88965-9.59766,30.28613-19.52246,43.05029-32.28516,10.46192-10.46,18.57227-23.35156,22.83643-36.29882,4.833-14.67383,4.63428-28.93653-.57422-41.248a1.49972,1.49972,0,1,0-2.7627,1.168c10.81055,25.55469-3.06933,55.709-21.6206,74.25781-12.5376,12.53516-27.79736,22.37207-42.55469,31.88477-8.37939,5.40234-17.04394,10.9873-25.16894,17.03222-35.626,26.50489-43.85059,52.3252-44.47657,69.31836-.79882,21.69336,10.44727,44.25391,30.08252,60.35157,14.87354,12.19238,33.74854,20.86132,59.40186,27.28027A1.51983,1.51983,0,0,0,655.216,591.86914Z" style="fill:#e0d5a4"/><polygon points="648.737 575.922 646.199 577.527 654.12 590.019 641.081 597.008 642.502 599.653 658.38 591.139 648.737 575.922" style="fill:#e0d5a4"/><path d="M926.51727,675.61426c56.26026,0,115.33448-2.85254,171.79883-15.80371,88.86426-20.38379,160.87256-64.94727,202.76025-125.48145,21.35694-30.86328,35.86866-66.93066,43.13282-107.19922,6.686-37.06445,6.87793-77.42285.55468-116.71289a1.5,1.5,0,0,0-2.96191.47656c6.27,38.959,6.08154,78.96875-.54541,115.70411-7.1875,39.84375-21.53613,75.51562-42.647,106.02441-41.46094,59.917-112.83154,104.04883-200.96436,124.26465-79.14892,18.1543-163.63818,16.36914-238.18066,14.79492h-.03223a1.50017,1.50017,0,0,0-.03125,3C881.05829,675.13867,903.55341,675.61426,926.51727,675.61426Z" style="fill:#f4bfa8"/><polygon points="869.177 685.589 871.258 683.425 860.584 673.185 871.577 663.286 869.566 661.056 856.179 673.115 869.177 685.589" style="fill:#f4bfa8"/><path d="M644.85272,874.24219l.6709-1.88477a159.71756,159.71756,0,0,0,69.61719,8.37793,75.50052,75.50052,0,0,0,13.28613-2.49512c-9.60644-3.78418-17.93164-10.84668-19.79932-21.19921-1.15673-6.40821.99219-13.4961,5.74805-18.96,4.75488-5.46386,11.47217-8.58984,17.98291-8.30859,6.50586.26074,12.9585,3.89453,17.26123,9.72168s5.877,13.06348,4.21143,19.35742c-1.19531,4.51758-5.29492,13.61621-19.22071,19.35059a48.35705,48.35705,0,0,0,7.4917,1.18164c15.84668,1.28613,32.13526-4.09863,45.85743-15.1416,13.26416-10.67383,22.82959-25.86426,26.24414-41.67676,4.34179-20.10547-6.26612-42.21094-16.52442-63.58887-6.49853-13.542-12.63672-26.334-14.959-38.33105l1.96387-.38086c2.27294,11.74512,8.35693,24.42383,14.79833,37.84668,10.4043,21.68164,21.16211,44.10058,16.67627,64.876-7.53369,34.88868-40.84423,61.07618-74.21728,58.39063a47.81893,47.81893,0,0,1-10.37988-2.03125,73.65922,73.65922,0,0,1-16.21485,3.37891,159.2013,159.2013,0,0,1-16.34131.83789A161.92278,161.92278,0,0,1,644.85272,874.24219ZM715.884,839.39355c-4.36084,5.01075-6.33789,11.47559-5.28857,17.292,1.4126,7.82617,8.40234,16.56933,20.79541,20.60644,15.09961-5.30762,19.33056-14.50586,20.50683-18.95215,1.51172-5.71289.0586-12.31445-3.88671-17.6582-3.94581-5.34277-9.82715-8.6748-15.73243-8.91113q-.342-.01318-.68506-.01367A21.31021,21.31021,0,0,0,715.884,839.39355Z" style="fill:#fffded"/><polygon points="648.852 883.13 650.614 882.181 645.93 873.503 654.928 869.465 654.107 867.639 643.149 872.56 648.852 883.13" style="fill:#fffded"/><path d="M1021.72528,102.18262a30.72705,30.72705,0,1,1,30.72705,30.72754A30.76206,30.76206,0,0,1,1021.72528,102.18262Zm2.9541,0a27.773,27.773,0,1,0,27.773-27.77246A27.80442,27.80442,0,0,0,1024.67938,102.18262Z" style="fill:#fffded"/><path d="M1044.85077,114.79687V111.125h6.58984V94.10156h-.30908l-5.2168,6.17774-2.814-2.36719,5.9375-7.07031h6.8291V111.125h5.49121v3.67187Z" style="fill:#fffded"/><path d="M731.72528,427.18262a30.72705,30.72705,0,1,1,30.727,30.72754A30.76206,30.76206,0,0,1,731.72528,427.18262Zm2.9541,0a27.773,27.773,0,1,0,27.77295-27.77246A27.80442,27.80442,0,0,0,734.67938,427.18262Z" style="fill:#fffded"/><path d="M771.01581,439.79687H754.405v-4.18652l7.51611-6.58887a15.91957,15.91957,0,0,0,2.814-3.03808,5.23511,5.23511,0,0,0,.89257-2.93457v-.44531a2.94529,2.94529,0,0,0-1.02929-2.41993,3.836,3.836,0,0,0-2.50586-.84179,3.63332,3.63332,0,0,0-2.81445,1.04687,6.09521,6.09521,0,0,0-1.37256,2.52344l-3.9126-1.50977a9.63035,9.63035,0,0,1,1.06445-2.2832,7.56868,7.56868,0,0,1,1.73291-1.9043,8.23023,8.23023,0,0,1,2.45362-1.30468,10.98079,10.98079,0,0,1,6.58984.05175,7.01963,7.01963,0,0,1,2.48828,1.49317,6.44087,6.44087,0,0,1,1.54395,2.26562,7.98273,7.98273,0,0,1,.05175,5.59375,10.13557,10.13557,0,0,1-1.3042,2.35059,15.08728,15.08728,0,0,1-1.92187,2.12793q-1.09937,1.01367-2.3335,2.042l-5.04541,4.15332h11.70313Z" style="fill:#fffded"/><path d="M1120.72528,586.18262a30.72705,30.72705,0,1,1,30.727,30.72754A30.76206,30.76206,0,0,1,1120.72528,586.18262Zm2.9541,0a27.773,27.773,0,1,0,27.773-27.77246A27.80442,27.80442,0,0,0,1123.67938,586.18262Z" style="fill:#fffded"/><path d="M1153.2204,598.79687v-4.63281h-10.84522v-3.87793l9.541-15.44433h5.59424v15.78711h3.123v3.53515h-3.123v4.63281Zm-7.13867-8.168h7.13867V579.23437h-.27442Z" style="fill:#fffded"/><path d="M380.72528,636.18262a30.72705,30.72705,0,1,1,30.72705,30.72754A30.76206,30.76206,0,0,1,380.72528,636.18262Zm2.9541,0a27.773,27.773,0,1,0,27.773-27.77246A27.80442,27.80442,0,0,0,383.67938,636.18262Z" style="fill:#fffded"/><path d="M418.53973,628.75391H407.76337l-.54883,8.03125h.24023a11.82713,11.82713,0,0,1,.82325-1.40723,4.74733,4.74733,0,0,1,1.02978-1.09863,4.62829,4.62829,0,0,1,1.35547-.70313,5.94831,5.94831,0,0,1,1.8706-.25781,7.95267,7.95267,0,0,1,2.88282.51562,6.56519,6.56519,0,0,1,2.3164,1.49219,7.0472,7.0472,0,0,1,1.54493,2.38574,8.50687,8.50687,0,0,1,.56591,3.19239,9.16192,9.16192,0,0,1-.58349,3.32812,7.35833,7.35833,0,0,1-1.71582,2.626,7.81324,7.81324,0,0,1-2.78028,1.7334,10.6981,10.6981,0,0,1-3.7749.61718,11.0937,11.0937,0,0,1-2.95166-.36035,8.74693,8.74693,0,0,1-2.29932-.97754,7.78021,7.78021,0,0,1-1.7163-1.4248,11.87945,11.87945,0,0,1-1.26954-1.69824l3.29493-2.54q.41161.687.85742,1.28711a5.02545,5.02545,0,0,0,1.04687,1.0459,4.91993,4.91993,0,0,0,1.33887.7041,5.25714,5.25714,0,0,0,1.73291.25683,3.9785,3.9785,0,0,0,3.07178-1.13183,4.37333,4.37333,0,0,0,1.04687-3.08887v-.27441a3.94448,3.94448,0,0,0-1.064-2.917,3.99214,3.99214,0,0,0-2.95166-1.06445,4.55866,4.55866,0,0,0-2.40235.56641,5.95717,5.95717,0,0,0-1.47558,1.21875l-3.707-.51563.89258-13.45312h14.10546Z" style="fill:#fffded"/><path d="M1021.72528,309.18262a30.72705,30.72705,0,1,1,30.72705,30.72754A30.76206,30.76206,0,0,1,1021.72528,309.18262Zm2.9541,0a27.773,27.773,0,1,0,27.773-27.77246A27.80442,27.80442,0,0,0,1024.67938,309.18262Z" style="fill:#fffded"/><path d="M1052.74481,307.51953a4.58606,4.58606,0,0,0,3.03711-.83984,2.70221,2.70221,0,0,0,.978-2.14551V304.294a2.94584,2.94584,0,0,0-.94385-2.31641,3.75708,3.75708,0,0,0-2.59082-.84082,5.20333,5.20333,0,0,0-2.79736.75488,6.80722,6.80722,0,0,0-2.11084,2.12793l-2.88281-2.6084a14.52578,14.52578,0,0,1,1.35546-1.56152,7.56649,7.56649,0,0,1,1.69922-1.26953,9.14693,9.14693,0,0,1,2.16211-.8418,10.94382,10.94382,0,0,1,2.71094-.30859,11.971,11.971,0,0,1,3.3125.42968,7.72205,7.72205,0,0,1,2.57373,1.252,5.72,5.72,0,0,1,1.66455,1.97363,5.64705,5.64705,0,0,1,.5835,2.59082,5.73342,5.73342,0,0,1-.36035,2.09375,5.02613,5.02613,0,0,1-.99561,1.61328,5.21014,5.21014,0,0,1-1.47559,1.11524,7.33226,7.33226,0,0,1-1.76757.63476v.207a8.18188,8.18188,0,0,1,1.95605.65137,5.13752,5.13752,0,0,1,1.59619,1.18457,5.6667,5.6667,0,0,1,1.064,1.73242,6.11928,6.11928,0,0,1,.39453,2.26563,6.50138,6.50138,0,0,1-.63477,2.88281,6.40518,6.40518,0,0,1-1.80176,2.23047,8.36766,8.36766,0,0,1-2.78027,1.42383,12.1854,12.1854,0,0,1-3.60351.498,11.93045,11.93045,0,0,1-3.08887-.36035,8.95328,8.95328,0,0,1-2.35059-.97754,8.36653,8.36653,0,0,1-1.76758-1.4248,10.58919,10.58919,0,0,1-1.3042-1.69824l3.32911-2.54a10.23645,10.23645,0,0,0,.89209,1.32129,5.57758,5.57758,0,0,0,1.09863,1.04687,4.71764,4.71764,0,0,0,1.40723.68555,6.0821,6.0821,0,0,0,1.78418.24023,4.40175,4.40175,0,0,0,3.05468-.96093,3.37888,3.37888,0,0,0,1.064-2.64258v-.24024a2.932,2.932,0,0,0-1.1499-2.50488,5.47188,5.47188,0,0,0-3.31153-.8584h-2.36816v-3.77539Z" style="fill:#fffded"/><path d="M669.5,684.45508c-83.595,61.95874-283.25586,47.50732-354.19189,27.9646" style="fill:none;stroke:#f4bfa8;stroke-linecap:round;stroke-linejoin:round;stroke-width:3px"/><path d="M338.79346,703.541a1.50049,1.50049,0,0,1-.96485,1.88964l-21.832,7.07666,15.64527,16.79078a1.50033,1.50033,0,0,1-2.19483,2.04614l-17.25073-18.51465a1.50067,1.50067,0,0,1,.63525-2.4502l24.07227-7.80322a1.501,1.501,0,0,1,1.88965.96485Z" style="fill:#f4bfa8"/><path d="M154.36426,615.4502c-16.03174-29.20777-22.04346-74.11109-16.88208-107.66553" style="fill:none;stroke:#f4bfa8;stroke-linecap:round;stroke-linejoin:round;stroke-width:3px"/><polygon points="148.411 519.293 145.96 521.027 137.43 508.943 126 518.334 124.096 516.013 138.019 504.578 148.411 519.293" style="fill:#f4bfa8"/></g></g></svg>